<?xml version="1.0" encoding="utf-8"?>
<!-- Generator: Adobe Illustrator 18.0.0, SVG Export Plug-In . SVG Version: 6.00 Build 0)  -->
<!DOCTYPE svg PUBLIC "-//W3C//DTD SVG 1.1//EN" "http://www.w3.org/Graphics/SVG/1.1/DTD/svg11.dtd">
<svg version="1.1" xmlns="http://www.w3.org/2000/svg" xmlns:xlink="http://www.w3.org/1999/xlink" x="0px" y="0px"
	 viewBox="0 0 1700 1400" enable-background="new 0 0 1700 1400" xml:space="preserve">
<g id="Layer_2">
</g>
<g id="Layer_1">
	<g>
		<defs>
			<rect id="SVGID_9_" width="1700" height="1400"/>
		</defs>
		<clipPath id="SVGID_1_">
			<use xlink:href="#SVGID_9_"  overflow="visible"/>
		</clipPath>
		<linearGradient id="SVGID_2_" gradientUnits="userSpaceOnUse" x1="850" y1="-3.816240e-08" x2="850" y2="648.7167">
			<stop  offset="0" style="stop-color:#733859"/>
			<stop  offset="0.4951" style="stop-color:#FF7C7F"/>
			<stop  offset="1" style="stop-color:#FC818A"/>
		</linearGradient>
		<rect clip-path="url(#SVGID_1_)" fill="url(#SVGID_2_)" width="1700" height="648.7"/>
		<g opacity="0.7" clip-path="url(#SVGID_1_)">
			<linearGradient id="SVGID_3_" gradientUnits="userSpaceOnUse" x1="781.4991" y1="109.2766" x2="781.4991" y2="160.826">
				<stop  offset="1.315370e-03" style="stop-color:#FFFFFF"/>
				<stop  offset="1" style="stop-color:#FFFFFF;stop-opacity:0"/>
			</linearGradient>
			<path fill="url(#SVGID_3_)" d="M711.8,137.3c8.2,0,15.9,2.5,22.2,6.8c10.8-20.7,32.4-34.8,57.3-34.8c26.9,0,50,16.4,59.7,39.8
				c3.6-1.7,7.7-2.6,11.9-2.6c10.6,0,19.8,5.8,24.7,14.4H675.4C681.6,147,695.6,137.3,711.8,137.3z"/>
			<linearGradient id="SVGID_4_" gradientUnits="userSpaceOnUse" x1="220.3879" y1="349.5605" x2="220.3879" y2="412.5195">
				<stop  offset="1.315370e-03" style="stop-color:#FFFFFF"/>
				<stop  offset="1" style="stop-color:#FFFFFF;stop-opacity:0"/>
			</linearGradient>
			<path fill="url(#SVGID_4_)" d="M135.2,383.8c10,0,19.4,3,27.1,8.2c13.2-25.3,39.6-42.5,70-42.5c32.9,0,61,20.1,72.9,48.6
				c4.4-2.1,9.4-3.2,14.6-3.2c12.9,0,24.2,7.1,30.1,17.5H90.8C98.4,395.6,115.4,383.8,135.2,383.8z"/>
			<linearGradient id="SVGID_5_" gradientUnits="userSpaceOnUse" x1="1257.1876" y1="353.7717" x2="1257.1876" y2="417.0539">
				<stop  offset="1.315370e-03" style="stop-color:#FFFFFF"/>
				<stop  offset="1" style="stop-color:#FFFFFF;stop-opacity:0"/>
			</linearGradient>
			<path fill="url(#SVGID_5_)" d="M1171.6,388.2c10.1,0,19.5,3.1,27.3,8.3c13.2-25.4,39.8-42.7,70.4-42.7c33,0,61.3,20.2,73.3,48.9
				c4.5-2.1,9.4-3.2,14.7-3.2c13,0,24.3,7.1,30.3,17.6h-260.6C1134.6,400,1151.7,388.2,1171.6,388.2z"/>
			<linearGradient id="SVGID_6_" gradientUnits="userSpaceOnUse" x1="948.9375" y1="247.6717" x2="948.9375" y2="319.9146">
				<stop  offset="1.315370e-03" style="stop-color:#FFFFFF"/>
				<stop  offset="1" style="stop-color:#FFFFFF;stop-opacity:0"/>
			</linearGradient>
			<path fill="url(#SVGID_6_)" d="M851.2,287c11.5,0,22.2,3.5,31.1,9.5c15.1-29,45.4-48.8,80.4-48.8c37.7,0,70,23,83.7,55.8
				c5.1-2.4,10.8-3.7,16.7-3.7c14.8,0,27.7,8.1,34.6,20.1H800.2C809,300.5,828.5,287,851.2,287z"/>
			<linearGradient id="SVGID_7_" gradientUnits="userSpaceOnUse" x1="1319.6779" y1="251.338" x2="1319.6779" y2="307.3836">
				<stop  offset="1.315370e-03" style="stop-color:#FFFFFF"/>
				<stop  offset="1" style="stop-color:#FFFFFF;stop-opacity:0"/>
			</linearGradient>
			<path fill="url(#SVGID_7_)" d="M1254.7,278.5c13.1,0,25.3,4.4,35,11.7c14.1-23.3,39.6-38.8,68.8-38.8c35.9,0,66.3,23.6,76.5,56
				h-230.6C1214.5,290.1,1233.2,278.5,1254.7,278.5z"/>
			
				<linearGradient id="SVGID_8_" gradientUnits="userSpaceOnUse" x1="1547.2114" y1="70.9537" x2="1547.2114" y2="110.7908" gradientTransform="matrix(-1 0 0 1 1679.1664 0)">
				<stop  offset="1.315370e-03" style="stop-color:#FFFFFF"/>
				<stop  offset="1" style="stop-color:#FFFFFF;stop-opacity:0"/>
			</linearGradient>
			<path fill="url(#SVGID_8_)" d="M178.2,90.2c-9.3,0-18,3.1-24.9,8.3C143.3,82,125.1,71,104.4,71C78.9,71,57.3,87.7,50,110.8h163.9
				C206.7,98.5,193.4,90.2,178.2,90.2z"/>
			
				<linearGradient id="SVGID_10_" gradientUnits="userSpaceOnUse" x1="114.1782" y1="115.1327" x2="114.1782" y2="154.9699" gradientTransform="matrix(-1 0 0 1 1679.1664 0)">
				<stop  offset="1.315370e-03" style="stop-color:#FFFFFF"/>
				<stop  offset="1" style="stop-color:#FFFFFF;stop-opacity:0"/>
			</linearGradient>
			<path fill="url(#SVGID_10_)" d="M1611.2,134.4c-9.3,0-18,3.1-24.9,8.3c-10-16.5-28.1-27.6-48.9-27.6c-25.5,0-47.1,16.7-54.4,39.8
				h163.9C1639.8,142.7,1626.5,134.4,1611.2,134.4z"/>
			<linearGradient id="SVGID_11_" gradientUnits="userSpaceOnUse" x1="379.4973" y1="101.6661" x2="379.4973" y2="155.1658">
				<stop  offset="1.315370e-03" style="stop-color:#FFFFFF"/>
				<stop  offset="1" style="stop-color:#FFFFFF;stop-opacity:0"/>
			</linearGradient>
			<path fill="url(#SVGID_11_)" d="M441.6,127.6c-12.5,0-24.1,4.2-33.4,11.2c-13.4-22.2-37.8-37.1-65.6-37.1
				c-34.3,0-63.3,22.5-73.1,53.5h220.1C479.9,138.7,462,127.6,441.6,127.6z"/>
			<linearGradient id="SVGID_12_" gradientUnits="userSpaceOnUse" x1="543.1354" y1="223.3152" x2="543.1354" y2="283.7932">
				<stop  offset="1.315370e-03" style="stop-color:#FFFFFF"/>
				<stop  offset="1" style="stop-color:#FFFFFF;stop-opacity:0"/>
			</linearGradient>
			<path fill="url(#SVGID_12_)" d="M629.4,254.9c-9,0-17.5,2.2-24.9,6.2c-13.1-22.6-37.6-37.8-65.5-37.8
				c-23.9,0-45.2,11.1-59.1,28.3c-5.3-1.6-10.9-2.4-16.7-2.4c-23.8,0-44.4,14.2-53.6,34.6h267.1C667.9,266.6,650,254.9,629.4,254.9z
				"/>
			<linearGradient id="SVGID_13_" gradientUnits="userSpaceOnUse" x1="1184.3994" y1="60.4252" x2="1184.3994" y2="121.3194">
				<stop  offset="1.315370e-03" style="stop-color:#FFFFFF"/>
				<stop  offset="1" style="stop-color:#FFFFFF;stop-opacity:0"/>
			</linearGradient>
			<path fill="url(#SVGID_13_)" d="M1255,89.9c-14.3,0-27.4,4.7-38,12.7c-15.3-25.3-43-42.2-74.7-42.2c-39,0-72,25.6-83.2,60.9
				h250.5C1298.7,102.5,1278.4,89.9,1255,89.9z"/>
		</g>
		<radialGradient id="SVGID_14_" cx="723.5364" cy="634.8894" r="596.1414" gradientUnits="userSpaceOnUse">
			<stop  offset="0" style="stop-color:#FFE5DF;stop-opacity:0.95"/>
			<stop  offset="0.4519" style="stop-color:#FFE5DF;stop-opacity:0.6512"/>
			<stop  offset="0.9162" style="stop-color:#FFE5DF;stop-opacity:0"/>
		</radialGradient>
		<circle clip-path="url(#SVGID_1_)" fill="url(#SVGID_14_)" cx="723.5" cy="634.9" r="596.1"/>
		<circle clip-path="url(#SVGID_1_)" fill="#FFE5DF" cx="723.5" cy="634.9" r="310.5"/>
		<path clip-path="url(#SVGID_1_)" fill="#FF9490" d="M-51.7,488.9c59.9-16.9,127.9-1,174.1,40.5c17.6-12.3,46-11.4,57.3,6.8
			c24.3-15.1,55.2-18.9,82.4-10.3s50.2,29.7,61.3,56c23.2-18.9,61.5-15.1,80.5,8.1c8.1-24.9,31.1-45.1,55.3-55.2
			c24.2-10.1,52.8-9.2,76.2,2.5c6.3-20.3,24.5-35.5,45.5-39c21-3.5,43.6,5.7,56.2,22.9c29.7-14.6,65.2-17.2,96.7-6.9
			c31.5,10.2,58.7,33.1,74.1,62.4c33.9-30.2,91.7-34.3,128.8-8.1c14.3-29.1,42.4-52.8,73.9-60.7c31.5-7.9,66.3-1.2,92.7,17.7
			c2.8-12.1,9-19,21.3-20.7c12.3-1.7,25.3,4.8,31.3,15.6c9.4-21.9,31.8-37.5,55.6-38.9s47.8,11.7,59.7,32.3
			c9.4-19.7,30.2-34.5,51.2-40.6s44.4-2.9,62.9,8.7c20.7-48.6,80.9-76.3,131.2-60.4c3.8-19.8,18.5-36.9,36.9-45
			c18.4-8.2,40.8-6.7,58,3.7c26-23.3,63.4-33.4,97.6-26.1v589.7H-70.6L-51.7,488.9z"/>
		<polygon clip-path="url(#SVGID_1_)" fill="#F57477" points="0,943.9 0,728.1 115.6,728.1 115.6,647.1 196.6,647.1 196.6,762.7 
			227.4,762.7 227.4,602.8 345,602.8 345,714.6 402.8,714.6 402.8,575.8 535.8,575.8 535.8,695.3 557,695.3 557,766.6 578.2,766.6 
			578.2,510.3 690,510.3 690,637.5 738.2,637.5 738.2,695.3 788.3,695.3 788.3,614.3 873.1,614.3 873.1,670.2 921.3,670.2 
			921.3,556.5 1011.9,556.5 1011.9,639.4 1075.5,639.4 1075.5,604.7 1254.8,604.7 1254.8,647.1 1306.8,647.1 1306.8,579.6 
			1403.2,579.6 1403.2,739.6 1478.3,739.6 1478.3,581.6 1594,581.6 1594,627.8 1700,627.8 1700,727.1 1700,943.9 		"/>
		<polygon clip-path="url(#SVGID_1_)" fill="#C85F6D" points="-78,869.6 -78,766.9 22,766.9 58,728.1 65.4,672.7 73.8,727.1 
			106.2,765.1 131.1,765.1 131.1,728.1 176.5,728.1 176.5,698.5 219.9,683.7 219.9,579.1 298.6,579.1 350.4,618 350.4,767.8 
			436.4,767.8 436.4,803 424.4,803 424.4,836.3 462.3,836.3 462.3,741.9 482.7,741.9 482.7,702.2 492,702.2 492,643.9 519.2,616.6 
			519.2,760.4 533.6,760.4 533.6,712.3 574.3,712.3 574.3,756.7 624.3,756.7 624.3,690.1 789.9,690.1 789.9,747.5 828.7,747.5 
			828.7,769.7 923.1,769.7 923.1,724.4 1168.3,724.4 1168.3,779.9 1240.4,779.9 1240.4,554.2 1259.9,507 1278.4,552.4 1278.4,778 
			1302.4,778 1302.4,514.4 1325.5,466.3 1352.4,510.7 1352.4,771.5 1372.7,771.5 1372.7,718.8 1435.6,718.8 1435.6,565.4 
			1456.5,544.6 1490.2,544.6 1490.2,587.6 1548.5,587.6 1548.5,724.4 1672.5,724.4 1672.5,760 1778,760 1778,1036.1 -78,1036.1 		
			"/>
		<path clip-path="url(#SVGID_1_)" fill="#6A2B4D" d="M969.8,851.9v-15l5.5-22V799h-29.2c-10.9-26.4-20.4-52.7-28.5-79.2h0.1V709
			l4-15.9v-11.5h-14.9c-31.6-121.2-39-252.1-39-431.8l7.4-10.1v-21.2h-8.3v-15.1h-12.8V167H850h-4.1v36.4h-12.8v15.1h-8.3v21.2
			l7.4,10.1c0,179.7-7.4,310.6-39,431.8h-14.9V693l4,15.9v10.9h0.1c-8.2,26.5-17.6,52.8-28.5,79.2h-29.2v15.9l5.5,22v15
			c-24,49.7-53.3,100.8-89.3,156.2h79.5l0.3-1.2c6.4-26.4,20.5-49.4,39.6-66.7c23.9-21.8,55.6-34.8,89.8-34.8l0,0l0,0
			c34.2,0,65.9,13,89.8,34.8c19,17.4,33.1,40.3,39.6,66.7l0.3,1.2h79.5C1023.2,952.7,993.8,901.6,969.8,851.9z M850,591
			c0,29,2.8,59.5,7.7,90.5H850h-7.7C847.2,650.6,850,620,850,591z M835.2,719.8H850h14.8c5.6,26.7,12.5,53.3,20.3,79.2H850h-35.1
			C822.7,773.1,829.6,746.5,835.2,719.8z"/>
		<rect x="-70.6" y="1113" clip-path="url(#SVGID_1_)" fill="#1C1335" width="1841.2" height="287"/>
		<g clip-path="url(#SVGID_1_)">
			<path fill="#341D4B" d="M543.1,1113H-70.6v287H9.5c18.5-108.5,113-191,226.8-191s208.2,82.6,226.8,191h80.1V1113z"/>
			<path fill="#341D4B" d="M1156.9,1113H543.1v287h80.1c18.5-108.5,113-191,226.8-191s208.2,82.6,226.8,191h80.1V1113z"/>
			<path fill="#341D4B" d="M1770.6,1113h-613.7v287h80.1c18.5-108.5,113-191,226.8-191c113.7,0,208.2,82.6,226.8,191h80.1V1113z"/>
		</g>
		<polygon clip-path="url(#SVGID_1_)" fill="#562453" points="-341.5,1024.2 -307.9,983.1 -266,983.1 -251.1,930 -238.4,987.6 
			-222,949.5 -98.7,949.5 -73.3,1007.7 -73.3,930 60.4,930 60.4,888.2 72,812 82.8,887.1 103.4,834.4 108.6,781 112.3,834 
			129.1,886 138.8,807.5 148.6,885.6 148.6,928.2 166.9,928.2 178.8,905 284.5,905 284.5,871.4 303.2,871.4 303.2,839.6 
			348.4,839.6 348.4,871 369.7,871 369.7,906.5 446.2,906.5 480.6,940.9 480.6,894.9 606.5,894.9 606.5,930 669.2,930 669.2,982.3 
			709.6,982.3 733.5,948.7 776,948.7 776,925.5 781,925.5 781,890.9 786,890.9 791,857.6 798.8,891.2 804.8,891.2 804.8,925.9 
			810.4,925.9 810.4,948 850,948 871.7,988.3 871.7,961.4 882.1,961.4 907.5,902.6 931.5,962.9 944.1,962.9 944.1,992 975.5,960.7 
			988.9,960.7 988.9,795.6 1000.9,770.9 1061.4,770.9 1073.7,794.8 1073.7,873.3 1145.6,873.3 1145.6,794.3 1156,770.9 
			1214.3,770.9 1225.2,792.3 1225.2,935.3 1269.1,935.3 1269.1,869.5 1282.5,869.5 1282.5,827.7 1291.5,827.7 1291.5,806 
			1392.6,806 1392.6,830.2 1401,830.2 1401,872 1415.5,872 1415.5,940.2 1465.3,940.2 1465.3,835.2 1457.3,835.2 1457.3,826.2 
			1469.8,826.2 1489.2,773.4 1493.7,727.1 1498.7,773.9 1516.1,824.7 1526,824.7 1526,834.7 1517.1,834.7 1517.1,933.3 
			1537.3,933.3 1537.3,899.4 1573.1,863.5 1831.6,863.5 1870.8,902.8 1870.8,930.8 1923.5,930.8 1974.3,883 2041.5,938.2 
			2041.5,1113 -341.5,1113 		"/>
	</g>
</g>
</svg>
